<svg width="147" height="32" viewBox="0 0 147 32" fill="none" xmlns="http://www.w3.org/2000/svg">
<path id="Vector" d="M21.6318 5.96632C24.2249 5.96632 26.3223 5.8859 28.4062 6.51577C29.5386 6.85751 30.7514 6.69669 31.8704 5.8457C40.32 -0.607089 49.6206 -1.03593 59.5176 1.77167C64.5967 3.21233 69.0795 6.58948 74.8019 6.04672C78.2595 5.71839 81.449 5.28285 84.6721 3.63447C92.5655 -0.406059 100.714 -1.02923 109.505 1.52374C117.633 3.88909 125.908 6.06682 134.492 6.757C137.782 7.02503 141.28 7.40697 144.195 9.75892C148.108 12.9083 147.545 18.5436 142.975 21.1166C136.388 24.8221 129.299 26.1422 121.828 24.9628C120.487 24.7551 119.67 25.1438 118.913 26.0149C113.599 32.1259 106.483 31.9048 99.494 31.1208C91.4733 30.2229 83.5396 28.6013 75.5457 27.4622C72.3294 27.0066 69.1331 27.6297 65.9972 28.4941C59.866 30.1894 53.6679 31.0471 47.3022 30.0755C45.1915 29.7539 43.0807 29.2714 41.3252 28.1256C36.5006 25.003 31.321 24.9427 25.9135 25.7468C18.9314 26.7787 12.1436 25.8138 5.81138 22.7382C2.86977 21.311 0.115762 18.959 0.752329 15.2535C1.3822 11.5681 4.39753 9.21616 7.75458 8.27806C12.4116 6.97812 17.149 5.48387 21.6519 5.95962L21.6318 5.96632Z" fill="#F72D57"/>
</svg>
